<?xml version="1.0" encoding="UTF-8" standalone="no"?>
<!DOCTYPE svg PUBLIC "-//W3C//DTD SVG 1.1//EN"
 "http://www.w3.org/Graphics/SVG/1.1/DTD/svg11.dtd">
<!-- Generated by graphviz version 2.43.0 (0)
 -->
<!-- Title: %3 Pages: 1 -->
<svg width="960pt" height="887pt"
 viewBox="0.00 0.00 959.50 887.00" xmlns="http://www.w3.org/2000/svg" xmlns:xlink="http://www.w3.org/1999/xlink">
<g id="graph0" class="graph" transform="scale(1 1) rotate(0) translate(4 883)">
<title>%3</title>
<polygon fill="white" stroke="transparent" points="-4,4 -4,-883 955.5,-883 955.5,4 -4,4"/>
<!-- &#45;1 -->
<g id="node1" class="node">
<title>&#45;1</title>
<text text-anchor="middle" x="455.5" y="-863.8" font-family="Times,serif" font-size="14.00">Масло: 99.7%</text>
<text text-anchor="middle" x="455.5" y="-848.8" font-family="Times,serif" font-size="14.00">Вода: 0.2%</text>
<text text-anchor="middle" x="455.5" y="-833.8" font-family="Times,serif" font-size="14.00">Мех. примеси: 0.00086 %</text>
<text text-anchor="middle" x="455.5" y="-818.8" font-family="Times,serif" font-size="14.00">Нафтеновые кислоты: 9.1e&#45;05%</text>
<text text-anchor="middle" x="455.5" y="-803.8" font-family="Times,serif" font-size="14.00">НУВ</text>
<text text-anchor="middle" x="455.5" y="-788.8" font-family="Times,serif" font-size="14.00">153.1 кг/час</text>
</g>
<!-- 0 -->
<g id="node2" class="node">
<title>0</title>
<polygon fill="none" stroke="black" points="352,-618.5 352,-654.5 457,-654.5 457,-618.5 352,-618.5"/>
<text text-anchor="middle" x="404.5" y="-632.8" font-family="Times,serif" font-size="14.00">Фильтрация</text>
</g>
<!-- &#45;1&#45;&gt;0 -->
<g id="edge3" class="edge">
<title>&#45;1:s&#45;&gt;0:n</title>
<path fill="none" stroke="black" d="M455.5,-781C455.5,-724.13 410.3,-716.21 405,-665.07"/>
<polygon fill="black" stroke="black" points="408.5,-664.81 404.5,-655 401.5,-665.16 408.5,-664.81"/>
<text text-anchor="middle" x="571" y="-751.8" font-family="Times,serif" font-size="14.00">Масло: 99.7%</text>
<text text-anchor="middle" x="571" y="-736.8" font-family="Times,serif" font-size="14.00">Вода: 0.2%</text>
<text text-anchor="middle" x="571" y="-721.8" font-family="Times,serif" font-size="14.00">Мех. примеси: 0.00086 %</text>
<text text-anchor="middle" x="571" y="-706.8" font-family="Times,serif" font-size="14.00">Нафтеновые кислоты: 9.1e&#45;05%</text>
<text text-anchor="middle" x="571" y="-691.8" font-family="Times,serif" font-size="14.00">НУВ</text>
<text text-anchor="middle" x="571" y="-676.8" font-family="Times,serif" font-size="14.00">153.1 кг/час</text>
</g>
<!-- 0r -->
<g id="node3" class="node">
<title>0r</title>
<text text-anchor="middle" x="837.5" y="-480.8" font-family="Times,serif" font-size="14.00">Мех. примеси: 0.1316 кг/час</text>
</g>
<!-- 0&#45;&gt;0r -->
<g id="edge2" class="edge">
<title>0:e&#45;&gt;0r:w</title>
<path fill="none" stroke="black" d="M458.5,-636.5C501.06,-636.5 611.07,-623.58 646.5,-600 687.85,-572.47 681.6,-548.76 708.5,-507 712.19,-501.28 712.35,-494.65 714.11,-490.08"/>
<polygon fill="black" stroke="black" points="716.11,-492.95 722.5,-484.5 712.24,-487.12 716.11,-492.95"/>
</g>
<!-- 1 -->
<g id="node5" class="node">
<title>1</title>
<polygon fill="none" stroke="black" points="341,-466.5 341,-502.5 468,-502.5 468,-466.5 341,-466.5"/>
<text text-anchor="middle" x="404.5" y="-480.8" font-family="Times,serif" font-size="14.00">Удаление воды</text>
</g>
<!-- 0&#45;&gt;1 -->
<g id="edge6" class="edge">
<title>0:s&#45;&gt;1:n</title>
<path fill="none" stroke="black" d="M404.5,-618C404.5,-570.69 404.5,-556.37 404.5,-513.69"/>
<polygon fill="black" stroke="black" points="408,-513.5 404.5,-503.5 401,-513.5 408,-513.5"/>
<text text-anchor="middle" x="522" y="-588.8" font-family="Times,serif" font-size="14.00">Масло: 99.79%</text>
<text text-anchor="middle" x="522" y="-573.8" font-family="Times,serif" font-size="14.00">Вода: 0.2002%</text>
<text text-anchor="middle" x="522" y="-558.8" font-family="Times,serif" font-size="14.00">Нафтеновые кислоты: 9.1e&#45;05%</text>
<text text-anchor="middle" x="522" y="-543.8" font-family="Times,serif" font-size="14.00">НУВ</text>
<text text-anchor="middle" x="522" y="-528.8" font-family="Times,serif" font-size="14.00">152.9 кг/час</text>
</g>
<!-- 0l -->
<g id="node4" class="node">
<title>0l</title>
</g>
<!-- 0l&#45;&gt;0 -->
<!-- 1r -->
<g id="node6" class="node">
<title>1r</title>
<text text-anchor="middle" x="742.5" y="-350.8" font-family="Times,serif" font-size="14.00">Цеолит: 15.31кг/час</text>
<text text-anchor="middle" x="742.5" y="-335.8" font-family="Times,serif" font-size="14.00">Вода 0.30616кг/час</text>
</g>
<!-- 1&#45;&gt;1r -->
<g id="edge5" class="edge">
<title>1:e&#45;&gt;1r:w</title>
<path fill="none" stroke="black" d="M469.5,-484.5C485.12,-484.5 482.17,-468.22 496.5,-462 526.08,-449.16 617.03,-466.12 640.5,-444 669.29,-416.86 625.08,-359.72 648.38,-348.82"/>
<polygon fill="black" stroke="black" points="649.28,-352.21 658.5,-347 648.04,-345.32 649.28,-352.21"/>
</g>
<!-- 2 -->
<g id="node8" class="node">
<title>2</title>
<polygon fill="none" stroke="black" points="337.5,-329 337.5,-365 471.5,-365 471.5,-329 337.5,-329"/>
<text text-anchor="middle" x="404.5" y="-343.3" font-family="Times,serif" font-size="14.00">Сорбция кислот</text>
</g>
<!-- 1&#45;&gt;2 -->
<g id="edge9" class="edge">
<title>1:s&#45;&gt;2:n</title>
<path fill="none" stroke="black" d="M404.5,-465.5C404.5,-455.9 402.94,-453.59 402.5,-444 401.26,-417.36 401.03,-410.63 402.5,-384 402.68,-380.74 403.04,-378.48 403.41,-376.41"/>
<polygon fill="black" stroke="black" points="406.94,-376.31 404.5,-366 399.98,-375.58 406.94,-376.31"/>
<text text-anchor="middle" x="520" y="-432.8" font-family="Times,serif" font-size="14.00">Масло: 99.99%</text>
<text text-anchor="middle" x="520" y="-417.8" font-family="Times,serif" font-size="14.00">Нафтеновые кислоты: 9.1e&#45;05%</text>
<text text-anchor="middle" x="520" y="-402.8" font-family="Times,serif" font-size="14.00">НУВ</text>
<text text-anchor="middle" x="520" y="-387.8" font-family="Times,serif" font-size="14.00">152.6 кг/час</text>
</g>
<!-- 1l -->
<g id="node7" class="node">
<title>1l</title>
<text text-anchor="middle" x="247.5" y="-632.8" font-family="Times,serif" font-size="14.00">Цеолит: 15.31кг/час</text>
</g>
<!-- 1l&#45;&gt;1 -->
<g id="edge4" class="edge">
<title>1l:e&#45;&gt;1:w</title>
<path fill="none" stroke="black" d="M323.5,-636.5C353.62,-636.5 316.2,-516.99 331.01,-489.91"/>
<polygon fill="black" stroke="black" points="332.95,-492.83 339.5,-484.5 329.19,-486.92 332.95,-492.83"/>
</g>
<!-- 2r -->
<g id="node9" class="node">
<title>2r</title>
<text text-anchor="middle" x="656.5" y="-231.8" font-family="Times,serif" font-size="14.00">Силикагель: 6.118кг/час</text>
<text text-anchor="middle" x="656.5" y="-216.8" font-family="Times,serif" font-size="14.00">Бетанит: 7.647кг/час</text>
<text text-anchor="middle" x="656.5" y="-201.8" font-family="Times,serif" font-size="14.00">MgO: 1.529кг/час</text>
<text text-anchor="middle" x="656.5" y="-186.8" font-family="Times,serif" font-size="14.00">Нафтеновые кислоты: 0.014кг/час</text>
</g>
<!-- 2&#45;&gt;2r -->
<g id="edge8" class="edge">
<title>2:e&#45;&gt;2r:w</title>
<path fill="none" stroke="black" d="M472.5,-347C493.67,-347 493.63,-329.22 502.5,-310 519.15,-273.92 484.39,-223.57 510.37,-214.45"/>
<polygon fill="black" stroke="black" points="511.09,-217.88 520.5,-213 510.11,-210.95 511.09,-217.88"/>
</g>
<!-- 3 -->
<g id="node11" class="node">
<title>3</title>
<polygon fill="none" stroke="black" points="346.5,-195 346.5,-231 462.5,-231 462.5,-195 346.5,-195"/>
<text text-anchor="middle" x="404.5" y="-209.3" font-family="Times,serif" font-size="14.00">Сорбция НУВ</text>
</g>
<!-- 2&#45;&gt;3 -->
<g id="edge12" class="edge">
<title>2:s&#45;&gt;3:n</title>
<path fill="none" stroke="black" d="M404.5,-328C404.5,-319.95 402.95,-318.04 402.5,-310 401.39,-290.03 401.89,-284.99 402.5,-265 402.82,-254.44 403.71,-249.61 404.19,-242.26"/>
<polygon fill="black" stroke="black" points="407.7,-242.1 404.5,-232 400.7,-241.89 407.7,-242.1"/>
<text text-anchor="middle" x="451" y="-298.8" font-family="Times,serif" font-size="14.00">Масло: 100%</text>
<text text-anchor="middle" x="451" y="-283.8" font-family="Times,serif" font-size="14.00">НУВ</text>
<text text-anchor="middle" x="451" y="-268.8" font-family="Times,serif" font-size="14.00">152.6 кг/час</text>
</g>
<!-- 2l -->
<g id="node10" class="node">
<title>2l</title>
<text text-anchor="middle" x="602.5" y="-495.8" font-family="Times,serif" font-size="14.00">Силикагель: 6.118кг/час</text>
<text text-anchor="middle" x="602.5" y="-480.8" font-family="Times,serif" font-size="14.00">Бетанит: 7.647кг/час</text>
<text text-anchor="middle" x="602.5" y="-465.8" font-family="Times,serif" font-size="14.00">MgO: 1.529кг/час</text>
</g>
<!-- 2l&#45;&gt;2 -->
<g id="edge7" class="edge">
<title>2l:e&#45;&gt;2:w</title>
<path fill="none" stroke="black" d="M695.5,-484.5C717.76,-484.5 721.31,-429.05 644.5,-384 615.02,-366.71 361.59,-389.74 337.5,-365.5 335.14,-363.13 333.18,-359.63 332.22,-356.31"/>
<polygon fill="black" stroke="black" points="335.51,-357.55 336.5,-347 329.15,-354.63 335.51,-357.55"/>
</g>
<!-- 3r -->
<g id="node12" class="node">
<title>3r</title>
<text text-anchor="middle" x="684.5" y="-97.8" font-family="Times,serif" font-size="14.00">Крупнопористый силикагель: 15.26кг/час</text>
<text text-anchor="middle" x="684.5" y="-82.8" font-family="Times,serif" font-size="14.00">НУВ много кг/час</text>
</g>
<!-- 3&#45;&gt;3r -->
<g id="edge11" class="edge">
<title>3:e&#45;&gt;3r:w</title>
<path fill="none" stroke="black" d="M463.5,-213C492.39,-213 489.86,-186.98 502.5,-161 514.1,-137.17 496.28,-104.82 510.61,-96.19"/>
<polygon fill="black" stroke="black" points="511.49,-99.58 520.5,-94 509.98,-92.74 511.49,-99.58"/>
</g>
<!-- 4 -->
<g id="node14" class="node">
<title>4</title>
<polygon fill="none" stroke="black" points="352,-76 352,-112 457,-112 457,-76 352,-76"/>
<text text-anchor="middle" x="404.5" y="-90.3" font-family="Times,serif" font-size="14.00">Фильтрация</text>
</g>
<!-- 3&#45;&gt;4 -->
<g id="edge15" class="edge">
<title>3:s&#45;&gt;4:n</title>
<path fill="none" stroke="black" d="M404.5,-194C404.5,-179.31 402.94,-175.69 402.5,-161 402.1,-147.67 401.76,-144.31 402.5,-131 402.68,-127.74 403.04,-125.48 403.41,-123.41"/>
<polygon fill="black" stroke="black" points="406.94,-123.31 404.5,-113 399.98,-122.58 406.94,-123.31"/>
<text text-anchor="middle" x="451" y="-149.8" font-family="Times,serif" font-size="14.00">Масло: 100%</text>
<text text-anchor="middle" x="451" y="-134.8" font-family="Times,serif" font-size="14.00">152.6 кг/час</text>
</g>
<!-- 3l -->
<g id="node13" class="node">
<title>3l</title>
<text text-anchor="middle" x="154.5" y="-343.3" font-family="Times,serif" font-size="14.00">Крупнопористый силикагель: 15.26кг/час</text>
</g>
<!-- 3l&#45;&gt;3 -->
<g id="edge10" class="edge">
<title>3l:e&#45;&gt;3:w</title>
<path fill="none" stroke="black" d="M310.5,-347C323.6,-347 328.61,-249.83 339.31,-220.98"/>
<polygon fill="black" stroke="black" points="342.14,-223.05 345.5,-213 336.61,-218.76 342.14,-223.05"/>
</g>
<!-- 4r -->
<g id="node15" class="node">
<title>4r</title>
</g>
<!-- 4&#45;&gt;4r -->
<!-- 5 -->
<g id="node17" class="node">
<title>5</title>
<text text-anchor="middle" x="388.5" y="-22.8" font-family="Times,serif" font-size="14.00">Масло: 100%</text>
<text text-anchor="middle" x="388.5" y="-7.8" font-family="Times,serif" font-size="14.00">152.6 кг/час</text>
</g>
<!-- 4&#45;&gt;5 -->
<g id="edge16" class="edge">
<title>4:s&#45;&gt;5:n</title>
<path fill="none" stroke="black" d="M404.5,-75C404.5,-61.14 394.93,-57.3 390.59,-47.99"/>
<polygon fill="black" stroke="black" points="393.98,-47.07 388.5,-38 387.12,-48.51 393.98,-47.07"/>
</g>
<!-- 4l -->
<g id="node16" class="node">
<title>4l</title>
</g>
<!-- 4l&#45;&gt;4 -->
</g>
</svg>
