<?xml version="1.0" encoding="UTF-8" standalone="no"?>
<!DOCTYPE svg PUBLIC "-//W3C//DTD SVG 1.1//EN"
 "http://www.w3.org/Graphics/SVG/1.1/DTD/svg11.dtd">
<!-- Generated by graphviz version 2.43.0 (0)
 -->
<!-- Title: %3 Pages: 1 -->
<svg width="1027pt" height="895pt"
 viewBox="0.00 0.00 1026.50 895.00" xmlns="http://www.w3.org/2000/svg" xmlns:xlink="http://www.w3.org/1999/xlink">
<g id="graph0" class="graph" transform="scale(1 1) rotate(0) translate(4 891)">
<title>%3</title>
<polygon fill="white" stroke="transparent" points="-4,4 -4,-891 1022.5,-891 1022.5,4 -4,4"/>
<!-- &#45;1 -->
<g id="node1" class="node">
<title>&#45;1</title>
<text text-anchor="middle" x="696.5" y="-871.8" font-family="Times,serif" font-size="14.00">Масло: 99.7%</text>
<text text-anchor="middle" x="696.5" y="-856.8" font-family="Times,serif" font-size="14.00">Вода: 0.2%</text>
<text text-anchor="middle" x="696.5" y="-841.8" font-family="Times,serif" font-size="14.00">Мех. примеси: 0.00086 %</text>
<text text-anchor="middle" x="696.5" y="-826.8" font-family="Times,serif" font-size="14.00">Нафтеновые кислоты: 9.1e&#45;05%</text>
<text text-anchor="middle" x="696.5" y="-811.8" font-family="Times,serif" font-size="14.00">НУВ</text>
<text text-anchor="middle" x="696.5" y="-796.8" font-family="Times,serif" font-size="14.00">153.1 кг/час</text>
</g>
<!-- 0 -->
<g id="node2" class="node">
<title>0</title>
<polygon fill="none" stroke="black" points="593,-626.5 593,-662.5 698,-662.5 698,-626.5 593,-626.5"/>
<text text-anchor="middle" x="645.5" y="-640.8" font-family="Times,serif" font-size="14.00">Фильтрация</text>
</g>
<!-- &#45;1&#45;&gt;0 -->
<g id="edge3" class="edge">
<title>&#45;1:s&#45;&gt;0:n</title>
<path fill="none" stroke="black" d="M696.5,-789C696.5,-732.13 651.3,-724.21 646,-673.07"/>
<polygon fill="black" stroke="black" points="649.5,-672.81 645.5,-663 642.5,-673.16 649.5,-672.81"/>
<text text-anchor="middle" x="811" y="-759.8" font-family="Times,serif" font-size="14.00">Масло: 99.7%</text>
<text text-anchor="middle" x="811" y="-744.8" font-family="Times,serif" font-size="14.00">Вода: 0.2%</text>
<text text-anchor="middle" x="811" y="-729.8" font-family="Times,serif" font-size="14.00">Мех. примеси: 0.00086 %</text>
<text text-anchor="middle" x="811" y="-714.8" font-family="Times,serif" font-size="14.00">Нафтеновые кислоты: 9.1e&#45;05%</text>
<text text-anchor="middle" x="811" y="-699.8" font-family="Times,serif" font-size="14.00">НУВ</text>
<text text-anchor="middle" x="811" y="-684.8" font-family="Times,serif" font-size="14.00">153.1 кг/час</text>
</g>
<!-- 0r -->
<g id="node3" class="node">
<title>0r</title>
<text text-anchor="middle" x="904.5" y="-484.8" font-family="Times,serif" font-size="14.00">Мех. примеси: 0.1316 кг/час</text>
</g>
<!-- 0&#45;&gt;0r -->
<g id="edge2" class="edge">
<title>0:e&#45;&gt;0r:w</title>
<path fill="none" stroke="black" d="M699.5,-644.5C735.38,-644.5 750.49,-637.08 771.5,-608 800.62,-567.69 745.22,-499.6 779.45,-489.71"/>
<polygon fill="black" stroke="black" points="779.99,-493.17 789.5,-488.5 779.15,-486.22 779.99,-493.17"/>
</g>
<!-- 1 -->
<g id="node5" class="node">
<title>1</title>
<polygon fill="none" stroke="black" points="472,-470.5 472,-506.5 599,-506.5 599,-470.5 472,-470.5"/>
<text text-anchor="middle" x="535.5" y="-484.8" font-family="Times,serif" font-size="14.00">Удаление воды</text>
</g>
<!-- 0&#45;&gt;1 -->
<g id="edge6" class="edge">
<title>0:s&#45;&gt;1:n</title>
<path fill="none" stroke="black" d="M645.5,-626C645.5,-600.79 549.85,-627.19 533.5,-608 506.79,-576.65 531.03,-555.66 534.98,-517.57"/>
<polygon fill="black" stroke="black" points="538.48,-517.67 535.5,-507.5 531.49,-517.3 538.48,-517.67"/>
<text text-anchor="middle" x="651" y="-596.8" font-family="Times,serif" font-size="14.00">Масло: 99.79%</text>
<text text-anchor="middle" x="651" y="-581.8" font-family="Times,serif" font-size="14.00">Вода: 0.2002%</text>
<text text-anchor="middle" x="651" y="-566.8" font-family="Times,serif" font-size="14.00">Нафтеновые кислоты: 9.1e&#45;05%</text>
<text text-anchor="middle" x="651" y="-551.8" font-family="Times,serif" font-size="14.00">НУВ</text>
<text text-anchor="middle" x="651" y="-536.8" font-family="Times,serif" font-size="14.00">152.9 кг/час</text>
</g>
<!-- 0l -->
<g id="node4" class="node">
<title>0l</title>
</g>
<!-- 0l&#45;&gt;0 -->
<!-- 1r -->
<g id="node6" class="node">
<title>1r</title>
<text text-anchor="middle" x="765.5" y="-350.8" font-family="Times,serif" font-size="14.00">Цеолит: 15.31кг/час</text>
<text text-anchor="middle" x="765.5" y="-335.8" font-family="Times,serif" font-size="14.00">Вода 0.30616кг/час</text>
</g>
<!-- 1&#45;&gt;1r -->
<g id="edge5" class="edge">
<title>1:e&#45;&gt;1r:w</title>
<path fill="none" stroke="black" d="M600.5,-488.5C634.78,-488.5 645.01,-472.87 663.5,-444 684.93,-410.54 646.29,-358.06 671.49,-348.52"/>
<polygon fill="black" stroke="black" points="672.14,-351.96 681.5,-347 671.09,-345.04 672.14,-351.96"/>
</g>
<!-- 2 -->
<g id="node8" class="node">
<title>2</title>
<polygon fill="none" stroke="black" points="360.5,-329 360.5,-365 494.5,-365 494.5,-329 360.5,-329"/>
<text text-anchor="middle" x="427.5" y="-343.3" font-family="Times,serif" font-size="14.00">Сорбция кислот</text>
</g>
<!-- 1&#45;&gt;2 -->
<g id="edge9" class="edge">
<title>1:s&#45;&gt;2:n</title>
<path fill="none" stroke="black" d="M535.5,-469.5C535.5,-419.31 456.72,-483.29 425.5,-444 406.12,-419.61 423.18,-404.08 426.84,-376.02"/>
<polygon fill="black" stroke="black" points="430.34,-376.21 427.5,-366 423.35,-375.75 430.34,-376.21"/>
<text text-anchor="middle" x="543" y="-432.8" font-family="Times,serif" font-size="14.00">Масло: 99.99%</text>
<text text-anchor="middle" x="543" y="-417.8" font-family="Times,serif" font-size="14.00">Нафтеновые кислоты: 9.1e&#45;05%</text>
<text text-anchor="middle" x="543" y="-402.8" font-family="Times,serif" font-size="14.00">НУВ</text>
<text text-anchor="middle" x="543" y="-387.8" font-family="Times,serif" font-size="14.00">152.6 кг/час</text>
</g>
<!-- 1l -->
<g id="node7" class="node">
<title>1l</title>
<text text-anchor="middle" x="388.5" y="-640.8" font-family="Times,serif" font-size="14.00">Цеолит: 15.31кг/час</text>
</g>
<!-- 1l&#45;&gt;1 -->
<g id="edge4" class="edge">
<title>1l:e&#45;&gt;1:w</title>
<path fill="none" stroke="black" d="M472.5,-644.5C537.78,-644.5 416.93,-506.25 460.39,-490.04"/>
<polygon fill="black" stroke="black" points="461.14,-493.47 470.5,-488.5 460.09,-486.55 461.14,-493.47"/>
</g>
<!-- 2r -->
<g id="node9" class="node">
<title>2r</title>
<text text-anchor="middle" x="635.5" y="-231.8" font-family="Times,serif" font-size="14.00">Силикагель: 6.118кг/час</text>
<text text-anchor="middle" x="635.5" y="-216.8" font-family="Times,serif" font-size="14.00">Бетанит: 7.647кг/час</text>
<text text-anchor="middle" x="635.5" y="-201.8" font-family="Times,serif" font-size="14.00">MgO: 1.529кг/час</text>
<text text-anchor="middle" x="635.5" y="-186.8" font-family="Times,serif" font-size="14.00">Нафтеновые кислоты: 0.014кг/час</text>
</g>
<!-- 2&#45;&gt;2r -->
<g id="edge8" class="edge">
<title>2:e&#45;&gt;2r:w</title>
<path fill="none" stroke="black" d="M495.5,-347C550.89,-347 455.25,-231.18 489.4,-214.89"/>
<polygon fill="black" stroke="black" points="490.32,-218.28 499.5,-213 489.03,-211.4 490.32,-218.28"/>
</g>
<!-- 3 -->
<g id="node11" class="node">
<title>3</title>
<polygon fill="none" stroke="black" points="325.5,-195 325.5,-231 441.5,-231 441.5,-195 325.5,-195"/>
<text text-anchor="middle" x="383.5" y="-209.3" font-family="Times,serif" font-size="14.00">Сорбция НУВ</text>
</g>
<!-- 2&#45;&gt;3 -->
<g id="edge12" class="edge">
<title>2:s&#45;&gt;3:n</title>
<path fill="none" stroke="black" d="M427.5,-328C427.5,-306.05 393.88,-328.13 381.5,-310 363.94,-284.27 379.55,-269.8 382.9,-241.98"/>
<polygon fill="black" stroke="black" points="386.39,-242.19 383.5,-232 379.41,-241.77 386.39,-242.19"/>
<text text-anchor="middle" x="430" y="-298.8" font-family="Times,serif" font-size="14.00">Масло: 100%</text>
<text text-anchor="middle" x="430" y="-283.8" font-family="Times,serif" font-size="14.00">НУВ</text>
<text text-anchor="middle" x="430" y="-268.8" font-family="Times,serif" font-size="14.00">152.6 кг/час</text>
</g>
<!-- 2l -->
<g id="node10" class="node">
<title>2l</title>
<text text-anchor="middle" x="260.5" y="-499.8" font-family="Times,serif" font-size="14.00">Силикагель: 6.118кг/час</text>
<text text-anchor="middle" x="260.5" y="-484.8" font-family="Times,serif" font-size="14.00">Бетанит: 7.647кг/час</text>
<text text-anchor="middle" x="260.5" y="-469.8" font-family="Times,serif" font-size="14.00">MgO: 1.529кг/час</text>
</g>
<!-- 2l&#45;&gt;2 -->
<g id="edge7" class="edge">
<title>2l:e&#45;&gt;2:w</title>
<path fill="none" stroke="black" d="M361.5,-488.5C420.22,-488.5 312.74,-365.17 349.38,-348.79"/>
<polygon fill="black" stroke="black" points="350.26,-352.19 359.5,-347 349.04,-345.29 350.26,-352.19"/>
</g>
<!-- 3r -->
<g id="node12" class="node">
<title>3r</title>
<text text-anchor="middle" x="617.5" y="-97.8" font-family="Times,serif" font-size="14.00">Крупнопористый силикагель: 15.26кг/час</text>
<text text-anchor="middle" x="617.5" y="-82.8" font-family="Times,serif" font-size="14.00">НУВ много кг/час</text>
</g>
<!-- 3&#45;&gt;3r -->
<g id="edge11" class="edge">
<title>3:e&#45;&gt;3r:w</title>
<path fill="none" stroke="black" d="M442.5,-213C491.46,-213 414.36,-111.87 443.63,-96.07"/>
<polygon fill="black" stroke="black" points="444.43,-99.47 453.5,-94 443,-92.62 444.43,-99.47"/>
</g>
<!-- 4 -->
<g id="node14" class="node">
<title>4</title>
<polygon fill="none" stroke="black" points="285,-76 285,-112 390,-112 390,-76 285,-76"/>
<text text-anchor="middle" x="337.5" y="-90.3" font-family="Times,serif" font-size="14.00">Фильтрация</text>
</g>
<!-- 3&#45;&gt;4 -->
<g id="edge15" class="edge">
<title>3:s&#45;&gt;4:n</title>
<path fill="none" stroke="black" d="M383.5,-194C383.5,-168.11 347.55,-183.91 335.5,-161 327.35,-145.5 333.92,-137.5 336.54,-123.34"/>
<polygon fill="black" stroke="black" points="340.06,-123.28 337.5,-113 333.09,-122.63 340.06,-123.28"/>
<text text-anchor="middle" x="384" y="-149.8" font-family="Times,serif" font-size="14.00">Масло: 100%</text>
<text text-anchor="middle" x="384" y="-134.8" font-family="Times,serif" font-size="14.00">152.6 кг/час</text>
</g>
<!-- 3l -->
<g id="node13" class="node">
<title>3l</title>
<text text-anchor="middle" x="162.5" y="-343.3" font-family="Times,serif" font-size="14.00">Крупнопористый силикагель: 15.26кг/час</text>
</g>
<!-- 3l&#45;&gt;3 -->
<g id="edge10" class="edge">
<title>3l:e&#45;&gt;3:w</title>
<path fill="none" stroke="black" d="M326.5,-347C381.87,-347 281.08,-231.18 314.49,-214.89"/>
<polygon fill="black" stroke="black" points="315.33,-218.3 324.5,-213 314.02,-211.42 315.33,-218.3"/>
</g>
<!-- 4r -->
<g id="node15" class="node">
<title>4r</title>
</g>
<!-- 4&#45;&gt;4r -->
<!-- 5 -->
<g id="node17" class="node">
<title>5</title>
<text text-anchor="middle" x="321.5" y="-22.8" font-family="Times,serif" font-size="14.00">Масло: 100%</text>
<text text-anchor="middle" x="321.5" y="-7.8" font-family="Times,serif" font-size="14.00">152.6 кг/час</text>
</g>
<!-- 4&#45;&gt;5 -->
<g id="edge16" class="edge">
<title>4:s&#45;&gt;5:n</title>
<path fill="none" stroke="black" d="M337.5,-75C337.5,-61.14 327.93,-57.3 323.59,-47.99"/>
<polygon fill="black" stroke="black" points="326.98,-47.07 321.5,-38 320.12,-48.51 326.98,-47.07"/>
</g>
<!-- 4l -->
<g id="node16" class="node">
<title>4l</title>
</g>
<!-- 4l&#45;&gt;4 -->
</g>
</svg>
