<?xml version="1.0" encoding="UTF-8" standalone="no"?>
<!DOCTYPE svg PUBLIC "-//W3C//DTD SVG 1.1//EN"
 "http://www.w3.org/Graphics/SVG/1.1/DTD/svg11.dtd">
<!-- Generated by graphviz version 2.49.3 (20211023.0002)
 -->
<!-- Pages: 1 -->
<svg width="6571pt" height="5371pt"
 viewBox="0.00 0.00 1577.00 1289.00" xmlns="http://www.w3.org/2000/svg" xmlns:xlink="http://www.w3.org/1999/xlink">
<g id="graph0" class="graph" transform="scale(4.17 4.17) rotate(0) translate(4 1285)">
<polygon fill="white" stroke="transparent" points="-4,4 -4,-1285 1573,-1285 1573,4 -4,4"/>
<!-- 0 -->
<!-- 1 -->
<g id="node2" class="node">
<title>1</title>
<polygon fill="none" stroke="black" points="144.5,-985.5 144.5,-1044.5 261.5,-1044.5 261.5,-985.5 144.5,-985.5"/>
<text text-anchor="middle" x="203" y="-1011.3" font-family="Times New Roman,serif" font-size="14.00">Фильтрация</text>
</g>
<!-- 0&#45;&gt;1 -->
<g id="edge1" class="edge">
<title>0:e&#45;&gt;1:w</title>
<path fill="none" stroke="black" d="M55,-1251C68.34,-1251 57.1,-1233.98 54,-1221 49.11,-1200.5 38.55,-1198.58 34,-1178 25.36,-1138.94 15.16,-1123.29 34,-1088 59.79,-1039.68 81.87,-1017.72 132.79,-1015.24"/>
<polygon fill="black" stroke="black" points="133.08,-1018.73 143,-1015 132.92,-1011.73 133.08,-1018.73"/>
<text text-anchor="middle" x="129" y="-1166.8" font-family="Times New Roman,serif" font-size="14.00">Масло: 99.7%</text>
<text text-anchor="middle" x="129" y="-1151.8" font-family="Times New Roman,serif" font-size="14.00">Вода: 0.2%</text>
<text text-anchor="middle" x="129" y="-1136.8" font-family="Times New Roman,serif" font-size="14.00">Мех. примеси: 0.00086 %</text>
<text text-anchor="middle" x="129" y="-1121.8" font-family="Times New Roman,serif" font-size="14.00">Нафтеновые кислоты: 9.1e&#45;05%</text>
<text text-anchor="middle" x="129" y="-1106.8" font-family="Times New Roman,serif" font-size="14.00">НУВ</text>
<text text-anchor="middle" x="129" y="-1091.8" font-family="Times New Roman,serif" font-size="14.00">153.1 кг/час</text>
</g>
<!-- 1u -->
<!-- 1&#45;&gt;1u -->
<g id="edge3" class="edge">
<title>1:s&#45;&gt;1u:n</title>
<path fill="none" stroke="black" d="M203,-985C203,-930.02 118.4,-987.13 87,-942 67.96,-914.64 81.09,-899.81 87,-867 89.91,-850.85 98.5,-846.05 101.74,-834.17"/>
<polygon fill="black" stroke="black" points="105.24,-834.35 103,-824 98.3,-833.49 105.24,-834.35"/>
<text text-anchor="middle" x="171.5" y="-900.8" font-family="Times New Roman,serif" font-size="14.00">Мех. примеси: 0.1316 кг/час</text>
</g>
<!-- 2 -->
<g id="node5" class="node">
<title>2</title>
<polygon fill="none" stroke="black" points="469.5,-764.5 469.5,-823.5 606.5,-823.5 606.5,-764.5 469.5,-764.5"/>
<text text-anchor="middle" x="538" y="-790.3" font-family="Times New Roman,serif" font-size="14.00">Удаление воды</text>
</g>
<!-- 1&#45;&gt;2 -->
<g id="edge4" class="edge">
<title>1:e&#45;&gt;2:w</title>
<path fill="none" stroke="black" d="M263,-1015C339.08,-1015 295.85,-921.43 349,-867 389.89,-825.12 404.32,-797.29 457.91,-794.27"/>
<polygon fill="black" stroke="black" points="458.1,-797.77 468,-794 457.91,-790.77 458.1,-797.77"/>
<text text-anchor="middle" x="444" y="-930.8" font-family="Times New Roman,serif" font-size="14.00">Масло: 99.79%</text>
<text text-anchor="middle" x="444" y="-915.8" font-family="Times New Roman,serif" font-size="14.00">Вода: 0.2002%</text>
<text text-anchor="middle" x="444" y="-900.8" font-family="Times New Roman,serif" font-size="14.00">Нафтеновые кислоты: 9.1e&#45;05%</text>
<text text-anchor="middle" x="444" y="-885.8" font-family="Times New Roman,serif" font-size="14.00">НУВ</text>
<text text-anchor="middle" x="444" y="-870.8" font-family="Times New Roman,serif" font-size="14.00">152.9 кг/час</text>
</g>
<!-- 1d -->
<!-- 1d&#45;&gt;1 -->
<!-- 2u -->
<!-- 2&#45;&gt;2u -->
<g id="edge6" class="edge">
<title>2:s&#45;&gt;2u:n</title>
<path fill="none" stroke="black" d="M538,-764C538,-721.27 474.47,-757.35 452,-721 437.98,-698.32 447.28,-687.24 452,-661 454.91,-644.85 463.5,-640.05 466.74,-628.17"/>
<polygon fill="black" stroke="black" points="470.24,-628.35 468,-618 463.3,-627.49 470.24,-628.35"/>
<text text-anchor="middle" x="511" y="-694.8" font-family="Times New Roman,serif" font-size="14.00">Цеолит: 15.29кг/час</text>
<text text-anchor="middle" x="511" y="-679.8" font-family="Times New Roman,serif" font-size="14.00">Вода 0.30616кг/час</text>
</g>
<!-- 3 -->
<g id="node8" class="node">
<title>3</title>
<polygon fill="none" stroke="black" points="781,-558.5 781,-617.5 925,-617.5 925,-558.5 781,-558.5"/>
<text text-anchor="middle" x="853" y="-584.3" font-family="Times New Roman,serif" font-size="14.00">Сорбция кислот</text>
</g>
<!-- 2&#45;&gt;3 -->
<g id="edge7" class="edge">
<title>2:e&#45;&gt;3:w</title>
<path fill="none" stroke="black" d="M608,-794C672.67,-794 624.98,-710.15 667,-661 703.58,-618.22 718.44,-591.29 769.94,-588.28"/>
<polygon fill="black" stroke="black" points="770.1,-591.78 780,-588 769.91,-584.78 770.1,-591.78"/>
<text text-anchor="middle" x="762" y="-709.8" font-family="Times New Roman,serif" font-size="14.00">Масло: 99.99%</text>
<text text-anchor="middle" x="762" y="-694.8" font-family="Times New Roman,serif" font-size="14.00">Нафтеновые кислоты: 9.1e&#45;05%</text>
<text text-anchor="middle" x="762" y="-679.8" font-family="Times New Roman,serif" font-size="14.00">НУВ</text>
<text text-anchor="middle" x="762" y="-664.8" font-family="Times New Roman,serif" font-size="14.00">152.6 кг/час</text>
</g>
<!-- 2d -->
<!-- 2d&#45;&gt;2 -->
<g id="edge5" class="edge">
<title>2d:s&#45;&gt;2:n</title>
<path fill="none" stroke="black" d="M644,-985C644,-945.34 553.15,-877.84 539.67,-834.05"/>
<polygon fill="black" stroke="black" points="543.09,-833.29 538,-824 536.18,-834.44 543.09,-833.29"/>
<text text-anchor="middle" x="680" y="-900.8" font-family="Times New Roman,serif" font-size="14.00">Цеолит: 15.29кг/час</text>
</g>
<!-- 3u -->
<!-- 3&#45;&gt;3u -->
<g id="edge9" class="edge">
<title>3:s&#45;&gt;3u:n</title>
<path fill="none" stroke="black" d="M853,-558C853,-497.99 760.03,-563.73 725,-515 709.43,-493.35 720.28,-481.24 725,-455 727.91,-438.85 736.5,-434.05 739.74,-422.17"/>
<polygon fill="black" stroke="black" points="743.24,-422.35 741,-412 736.3,-421.49 743.24,-422.35"/>
<text text-anchor="middle" x="827" y="-503.8" font-family="Times New Roman,serif" font-size="14.00">Силикагель: 6.106кг/час</text>
<text text-anchor="middle" x="827" y="-488.8" font-family="Times New Roman,serif" font-size="14.00">Бетанит: 7.632кг/час</text>
<text text-anchor="middle" x="827" y="-473.8" font-family="Times New Roman,serif" font-size="14.00">MgO: 1.526кг/час</text>
<text text-anchor="middle" x="827" y="-458.8" font-family="Times New Roman,serif" font-size="14.00">Нафтеновые кислоты: 0.014кг/час</text>
</g>
<!-- 4 -->
<g id="node11" class="node">
<title>4</title>
<polygon fill="none" stroke="black" points="1088.5,-352.5 1088.5,-411.5 1219.5,-411.5 1219.5,-352.5 1088.5,-352.5"/>
<text text-anchor="middle" x="1154" y="-378.3" font-family="Times New Roman,serif" font-size="14.00">Сорбция НУВ</text>
</g>
<!-- 3&#45;&gt;4 -->
<g id="edge10" class="edge">
<title>3:e&#45;&gt;4:w</title>
<path fill="none" stroke="black" d="M926,-588C1038.68,-588 974.95,-394.28 1076.95,-382.55"/>
<polygon fill="black" stroke="black" points="1077.21,-386.05 1087,-382 1076.82,-379.06 1077.21,-386.05"/>
<text text-anchor="middle" x="1051.5" y="-496.3" font-family="Times New Roman,serif" font-size="14.00">Масло: 100%</text>
<text text-anchor="middle" x="1051.5" y="-481.3" font-family="Times New Roman,serif" font-size="14.00">НУВ</text>
<text text-anchor="middle" x="1051.5" y="-466.3" font-family="Times New Roman,serif" font-size="14.00">152.6 кг/час</text>
</g>
<!-- 3d -->
<!-- 3d&#45;&gt;3 -->
<g id="edge8" class="edge">
<title>3d:s&#45;&gt;3:n</title>
<path fill="none" stroke="black" d="M958,-764C958,-727.24 869.14,-668.38 854.91,-628.08"/>
<polygon fill="black" stroke="black" points="858.3,-627.17 853,-618 851.43,-628.48 858.3,-627.17"/>
<text text-anchor="middle" x="1004.5" y="-702.3" font-family="Times New Roman,serif" font-size="14.00">Силикагель: 6.106кг/час</text>
<text text-anchor="middle" x="1004.5" y="-687.3" font-family="Times New Roman,serif" font-size="14.00">Бетанит: 7.632кг/час</text>
<text text-anchor="middle" x="1004.5" y="-672.3" font-family="Times New Roman,serif" font-size="14.00">MgO: 1.526кг/час</text>
</g>
<!-- 4u -->
<!-- 4&#45;&gt;4u -->
<g id="edge12" class="edge">
<title>4:s&#45;&gt;4u:n</title>
<path fill="none" stroke="black" d="M1154,-352C1154,-280.51 1042.27,-365.91 999,-309 981.1,-285.45 1007.77,-272.29 1013.83,-246.23"/>
<polygon fill="black" stroke="black" points="1017.34,-246.33 1015,-236 1010.38,-245.54 1017.34,-246.33"/>
<text text-anchor="middle" x="1125" y="-297.8" font-family="Times New Roman,serif" font-size="14.00">Крупнопористый силикагель: 15.26кг/час</text>
<text text-anchor="middle" x="1125" y="-282.8" font-family="Times New Roman,serif" font-size="14.00">НУВ много кг/час</text>
</g>
<!-- 5 -->
<g id="node14" class="node">
<title>5</title>
<polygon fill="none" stroke="black" points="1392.5,-176.5 1392.5,-235.5 1509.5,-235.5 1509.5,-176.5 1392.5,-176.5"/>
<text text-anchor="middle" x="1451" y="-202.3" font-family="Times New Roman,serif" font-size="14.00">Фильтрация</text>
</g>
<!-- 4&#45;&gt;5 -->
<g id="edge13" class="edge">
<title>4:e&#45;&gt;5:w</title>
<path fill="none" stroke="black" d="M1221,-382C1326.25,-382 1285.15,-217.16 1380.96,-206.54"/>
<polygon fill="black" stroke="black" points="1381.2,-210.03 1391,-206 1380.83,-203.04 1381.2,-210.03"/>
<text text-anchor="middle" x="1348.5" y="-297.8" font-family="Times New Roman,serif" font-size="14.00">Масло: 100%</text>
<text text-anchor="middle" x="1348.5" y="-282.8" font-family="Times New Roman,serif" font-size="14.00">152.6 кг/час</text>
</g>
<!-- 4d -->
<!-- 4d&#45;&gt;4 -->
<g id="edge11" class="edge">
<title>4d:s&#45;&gt;4:n</title>
<path fill="none" stroke="black" d="M1206,-558C1206,-492.62 1159.15,-481.87 1154.39,-422.04"/>
<polygon fill="black" stroke="black" points="1157.88,-421.86 1154,-412 1150.89,-422.13 1157.88,-421.86"/>
<text text-anchor="middle" x="1323" y="-481.3" font-family="Times New Roman,serif" font-size="14.00">Крупнопористый силикагель: 15.26кг/час</text>
</g>
<!-- 5u -->
<!-- 5&#45;&gt;5u -->
<!-- 6 -->
<!-- 5&#45;&gt;6 -->
<g id="edge16" class="edge">
<title>5&#45;&gt;6</title>
<path fill="none" stroke="black" d="M1462.72,-176.27C1474.65,-147.05 1493.19,-101.61 1506.36,-69.34"/>
<polygon fill="black" stroke="black" points="1509.72,-70.36 1510.26,-59.78 1503.24,-67.71 1509.72,-70.36"/>
<text text-anchor="middle" x="1529.5" y="-121.8" font-family="Times New Roman,serif" font-size="14.00">Масло: 100%</text>
<text text-anchor="middle" x="1529.5" y="-106.8" font-family="Times New Roman,serif" font-size="14.00">152.6 кг/час</text>
</g>
<!-- 5d -->
<!-- 5d&#45;&gt;5 -->
</g>
</svg>
